<svg xmlns="http://www.w3.org/2000/svg" version="1.1" xmlns:xlink="http://www.w3.org/1999/xlink" xmlns:svgjs="http://svgjs.com/svgjs" width="3840" height="2160" preserveAspectRatio="none" viewBox="0 0 3840 2160"><g mask="url(&quot;#SvgjsMask1619&quot;)" fill="none"><rect width="3840" height="2160" x="0" y="0" fill="url(#SvgjsLinearGradient1620)"></rect><path d="M3904 2160L0 2160 L0 1384.84Q30.75 1095.59, 320 1126.33Q500.79 987.12, 640 1167.91Q825.13 1161.04, 832 1346.16Q966.24 1288.4, 1024 1422.64Q1175.04 1253.68, 1344 1404.71Q1461.21 1329.92, 1536 1447.13Q1585.49 1176.63, 1856 1226.12Q1883.39 1061.51, 2048 1088.9Q2241.59 962.49, 2368 1156.09Q2593.1 1061.19, 2688 1286.29Q2842.48 1120.77, 3008 1275.25Q3038.43 1113.68, 3200 1144.12Q3264.47 1016.59, 3392 1081.05Q3527.39 1024.44, 3584 1159.84Q3889.38 1145.22, 3904 1450.61z" fill="rgba(168, 54, 30, 1)"></path><path d="M3904 2160L0 2160 L0 1551.36Q80.37 1439.73, 192 1520.1Q274.27 1282.37, 512 1364.64Q707.03 1239.67, 832 1434.7Q908.79 1319.49, 1024 1396.28Q1215.59 1267.87, 1344 1459.45Q1454.1 1377.55, 1536 1487.64Q1642.21 1401.86, 1728 1508.07Q1961.2 1421.27, 2048 1654.47Q2162.23 1576.7, 2240 1690.93Q2262.79 1521.72, 2432 1544.52Q2486.38 1406.89, 2624 1461.27Q2727.84 1373.11, 2816 1476.94Q2855.61 1324.56, 3008 1364.17Q3109.06 1273.23, 3200 1374.29Q3493.37 1347.66, 3520 1641.03Q3572.9 1501.93, 3712 1554.84Q3791.09 1441.93, 3904 1521.02z" fill="rgba(33, 123, 174, 1)"></path><path d="M3904 2160L0 2160 L0 1896.63Q115.14 1819.77, 192 1934.91Q312.09 1863, 384 1983.09Q390.12 1669.21, 704 1675.33Q847.13 1498.46, 1024 1641.6Q1289.84 1587.43, 1344 1853.27Q1510.4 1699.67, 1664 1866.07Q1699.92 1709.99, 1856 1745.9Q2032.57 1602.47, 2176 1779.04Q2304.89 1587.93, 2496 1716.83Q2774.3 1675.13, 2816 1953.42Q2929.03 1746.45, 3136 1859.47Q3137.89 1669.37, 3328 1671.26Q3408.71 1559.97, 3520 1640.68Q3642.09 1570.77, 3712 1692.86Q3772.17 1561.03, 3904 1621.2z" fill="#356cb1"></path><path d="M4160 2160L0 2160 L0 2018.75Q157.26 1984.01, 192 2141.26Q326.79 1956.05, 512 2090.84Q599.78 1986.63, 704 2074.41Q822.41 1872.82, 1024 1991.22Q1234.7 1881.92, 1344 2092.62Q1569.29 1997.91, 1664 2223.2Q1752.08 1991.28, 1984 2079.36Q2091.72 1995.08, 2176 2102.8Q2240.74 1847.55, 2496 1912.29Q2667.92 1764.21, 2816 1936.13Q2936.09 1864.22, 3008 1984.3Q3127.87 1784.17, 3328 1904.04Q3488.59 1872.63, 3520 2033.23Q3778.88 1972.11, 3840 2231Q3989.15 2060.15, 4160 2209.3z" fill="white"></path></g><defs><mask id="SvgjsMask1619"><rect width="3840" height="2160" fill="#ffffff"></rect></mask><linearGradient x1="10.94%" y1="-19.44%" x2="89.06%" y2="119.44%" gradientUnits="userSpaceOnUse" id="SvgjsLinearGradient1620"><stop stop-color="#0e2a47" offset="0"></stop><stop stop-color="rgba(223, 52, 52, 1)" offset="1"></stop></linearGradient></defs></svg>